<svg width="19" height="20" viewBox="0 0 19 20" fill="none" xmlns="http://www.w3.org/2000/svg">
<path d="M0 20V2H6.175C6.35833 1.41667 6.71667 0.937333 7.25 0.562C7.78333 0.187333 8.36667 0 9 0C9.66667 0 10.2627 0.187333 10.788 0.562C11.3127 0.937333 11.6667 1.41667 11.85 2H18V10H16V4H14V7H4V4H2V18H7V20H0ZM15 20L13.6 18.575L15.175 17H9V15H15.175L13.6 13.4L15 12L19 16L15 20ZM9 4C9.28333 4 9.521 3.904 9.713 3.712C9.90433 3.52067 10 3.28333 10 3C10 2.71667 9.90433 2.479 9.713 2.287C9.521 2.09567 9.28333 2 9 2C8.71667 2 8.47933 2.09567 8.288 2.287C8.096 2.479 8 2.71667 8 3C8 3.28333 8.096 3.52067 8.288 3.712C8.47933 3.904 8.71667 4 9 4Z" fill="black"/>
</svg>
