<svg width="24" height="24" viewBox="0 0 24 24" fill="none" xmlns="http://www.w3.org/2000/svg">
<path d="M21 21V3H14.825C14.6417 2.41667 14.2833 1.93733 13.75 1.562C13.2167 1.18733 12.6333 1 12 1C11.3333 1 10.7373 1.18733 10.212 1.562C9.68733 1.93733 9.33333 2.41667 9.15 3H3V11H5V5H7V8H17V5H19V19H14V21H21ZM6 21L7.4 19.575L5.825 18H12V16H5.825L7.4 14.4L6 13L2 17L6 21ZM12 5C11.7167 5 11.479 4.904 11.287 4.712C11.0957 4.52067 11 4.28333 11 4C11 3.71667 11.0957 3.479 11.287 3.287C11.479 3.09567 11.7167 3 12 3C12.2833 3 12.5207 3.09567 12.712 3.287C12.904 3.479 13 3.71667 13 4C13 4.28333 12.904 4.52067 12.712 4.712C12.5207 4.904 12.2833 5 12 5Z" fill="black"/>
</svg>
